<svg width="466" height="242" viewBox="0 0 466 242" fill="none" xmlns="http://www.w3.org/2000/svg">
<path d="M13 1.00006C18.0576 5.41083 21.8642 10.9049 25.875 16.2501C27.9267 18.9689 29.9796 21.6867 32.042 24.3975C33.2895 26.0557 34.5166 27.7295 35.7158 29.4229C40.0308 35.3658 44.8958 39.2231 51 43.2501C52.7292 44.4218 54.4584 45.5937 56.1875 46.7657C57.0035 47.3116 57.8195 47.8575 58.6602 48.42C61.8187 50.5529 64.9113 52.7675 68 55.0001C71.3832 53.4729 74.0768 51.4626 77 49.1876C88.2091 40.9234 100.121 37.4168 113.926 39.4258C128.641 42.6027 142.142 51.1623 150.5 63.8126C156.425 74.7031 156.782 86.0699 155 98.0001C172.955 104.481 191.389 108.808 210.393 110.733C212.089 110.907 213.783 111.099 215.475 111.314C223.483 112.281 229.925 112.5 236.566 107.463C239.096 105.329 241.521 103.093 243.941 100.836C247.732 97.4564 251.851 94.5082 255.938 91.5001C257.648 90.2275 259.357 88.9541 261.066 87.6797C261.897 87.062 262.727 86.4442 263.583 85.8077C265.845 84.1161 268.095 82.4098 270.34 80.6954C293.897 62.7311 293.897 62.7311 307 59.0001C307.606 58.8131 308.212 58.6262 308.836 58.4337C318.455 56.5064 327.814 57.1728 336.371 62.086C342.211 66.3377 346.543 71.6845 350 78.0001C350 78.6601 350 79.3201 350 80.0001C372.026 69.7321 392.399 58.5339 412.437 44.7432C414.48 43.3539 416.536 42.0161 418.633 40.711C430.099 33.1186 437.945 20.5132 445.551 9.26178C450.805 1.55877 450.805 1.55877 454.688 0.187559C458.292 -0.016481 459.994 -0.00384688 463 2.00006C464.938 4.68756 464.938 4.68756 466 8.00006C464.92 14.5386 461.581 18.593 457.438 23.6251C454.921 26.7224 452.442 29.8438 450 33.0001C449.243 33.9763 448.486 34.9525 447.706 35.9583C442.314 43.274 439.049 50.1529 436.505 58.9716C435.718 61.6959 434.878 64.4028 434.041 67.1122C433.62 68.4786 433.201 69.8458 432.785 71.2137C425.298 95.7856 415.312 121.532 401 143C401.99 142.67 402.98 142.34 404 142C417.768 141.044 417.768 141.044 423 145C427.763 149.876 430.167 153.061 430.438 160C430.352 167.079 428.703 171.697 424 177C420.185 180.291 416.063 182.897 411.625 185.27C405.774 188.455 401.57 192.292 397 197.063C389.324 204.958 383.753 209.147 372.375 209.563C364.564 209.279 359.583 207.663 354 202.25C353.34 201.508 352.68 200.765 352 200C347.663 201.5 344.165 203.83 340.438 206.438C307.995 228.426 271.197 241.495 231.875 241.313C231.06 241.311 230.245 241.309 229.405 241.307C217.054 241.261 205.083 240.77 193 238C192.227 237.828 191.453 237.657 190.657 237.48C167.251 232.158 145.498 223.103 126 209C124.974 208.272 123.948 207.543 122.891 206.793C106.598 194.833 91.5648 179.588 80 163C79.4583 162.227 78.9165 161.454 78.3584 160.658C58.1472 131.594 42.0826 99.5532 31.7188 65.6524C26.7773 49.7428 20.7472 37.9719 9.9126 25.3072C0.58911 14.0604 0.589111 14.0604 0 8.00006C1.18164 4.82828 2.14028 2.68191 4.8125 0.562559C7.95569 -0.245691 9.89345 0.0490746 13 1.00006ZM85 65.0001C87.8684 68.1096 90.6592 70.1297 94.375 72.1368C95.9633 72.997 95.9633 72.997 97.5837 73.8746C98.7111 74.4729 99.8385 75.0711 101 75.6876C102.154 76.3039 103.308 76.9202 104.496 77.5552C111.709 81.3819 118.997 85.0115 126.438 88.3751C127.264 88.7498 128.091 89.1245 128.943 89.5106C133.299 91.4744 133.299 91.4744 138 92.0001C140.346 87.3086 139.038 82.4077 137.562 77.6251C133.641 67.6633 126.113 62.5237 116.699 58.0938C104.722 53.2404 94.704 57.4056 85 65.0001ZM396.512 75.4922C395.124 76.2963 395.124 76.2963 393.709 77.1165C392.712 77.6968 391.715 78.2772 390.688 78.8751C379.719 85.1818 368.511 90.7582 357 96.0001C358.081 101.445 359.393 106.452 361.625 111.563C362.071 112.595 362.517 113.628 362.977 114.691C363.314 115.453 363.652 116.215 364 117C372.052 110.29 379.206 102.971 386 95.0001C386.89 93.9738 387.781 92.9478 388.672 91.9219C393.894 85.8714 398.813 79.8365 403 73.0001C400.262 73.0001 398.873 74.1064 396.512 75.4922ZM262 109C262 109.33 262 109.66 262 110C271.301 109.552 279.953 108.157 289 106C289.433 104.298 289.433 104.298 289.875 102.563C290.246 101.387 290.618 100.211 291 99.0001C294.115 97.4423 297.604 97.4353 301 98.0001C304.638 100.385 304.871 103.953 305.75 108C309.528 123.424 320.21 133.817 332.625 143.063C344.696 152.133 351.136 162.85 358 176C359.147 178.188 360.295 180.375 361.447 182.56C362.134 183.867 362.815 185.178 363.489 186.493C365.103 189.847 365.103 189.847 368 192C371.171 192.724 373.827 192.744 377 192C381.528 188.916 385.202 184.969 388.883 180.938C393.636 175.835 398.782 172.47 404.809 169.057C409.4 166.615 409.4 166.615 413 163C413 161.68 413 160.36 413 159C407.448 158.624 403.729 159.675 398.938 162.313C397.188 163.235 397.188 163.235 395.402 164.176C393.203 165.355 391.005 166.537 388.809 167.723C384.94 169.482 381.921 169.396 378 168C358.57 156.875 348.765 124.538 342.027 104.969C340.51 100.583 338.94 96.2212 337.312 91.8751C337.063 91.1718 336.814 90.4685 336.558 89.744C334.382 83.9909 331.137 78.8842 325.77 75.6602C304.84 69.2687 276.74 95.8517 262 109ZM57 84.0001C57.6692 88.3008 59.1333 92.1021 60.875 96.0626C61.176 96.7472 61.477 97.4319 61.7871 98.1373C65.6243 106.646 70.1056 114.803 74.7764 122.878C75.7606 124.585 76.717 126.308 77.6641 128.035C85.6342 141.141 102.269 149.946 115 158C115.916 158.58 115.916 158.58 116.85 159.171C126.262 165.076 135.953 170.261 146 175C147.692 175.803 147.692 175.803 149.418 176.621C172.825 187.186 198.202 191.567 223.715 192.606C237.255 193.209 237.255 193.209 240 196.125C241.286 199.822 240.925 202.228 240 206C236.872 209.128 233.517 208.324 229.24 208.38C206.956 208.349 185.305 205.672 164 199C163.195 198.749 162.391 198.498 161.562 198.239C149.512 194.401 138.201 189.49 126.872 183.896C124.622 182.819 122.335 181.877 120 181C148.524 210.084 191.162 224.604 231.377 225.023C260.784 224.766 288.297 215.895 314 202C314.599 201.681 315.197 201.361 315.814 201.032C325.078 196.058 333.565 190.256 342 184C341.406 179.746 339.916 176.692 337.75 173C336.876 171.484 336.876 171.484 335.984 169.938C333.931 166.897 331.671 164.505 329 162C328.138 162.375 327.275 162.75 326.387 163.137C304.182 172.552 281.355 176.16 257.312 176.5C255.404 176.546 255.404 176.546 253.458 176.593C251.678 176.593 251.678 176.593 249.863 176.594C248.274 176.604 248.274 176.604 246.654 176.615C244 176 244 176 242.122 173.693C240.618 170.084 241.08 167.752 242 164C245.84 160.16 251.757 160.875 256.927 160.71C276.337 160.086 296.106 157.973 314 150C313.34 149.361 312.68 148.721 312 148.063C304.117 140.113 297.989 132.044 293 122C291.885 122.212 291.885 122.212 290.747 122.427C230.151 133.828 171.836 129.476 116 102C115.045 101.534 114.09 101.067 113.106 100.586C95.6669 92.0448 95.6669 92.0448 90.9961 89.1172C90.3374 88.7486 89.6787 88.3799 89 88.0001C88.01 88.4951 88.01 88.4951 87 89.0001C95.7841 97.4047 105.191 104.829 115 112C115.613 112.449 116.227 112.898 116.858 113.36C135.21 126.601 155.714 136.129 177.332 142.613C178.207 142.878 179.082 143.143 179.983 143.417C181.663 143.919 183.347 144.405 185.036 144.873C190.614 146.513 190.614 146.513 192.543 148.949C193.257 152.155 192.705 154.827 192 158C189.31 160.69 187.789 160.723 184 161C181.012 160.575 178.154 159.813 175.25 159C174.419 158.773 173.587 158.546 172.731 158.312C163.905 155.818 155.424 152.61 147 149C145.937 148.546 145.937 148.546 144.853 148.083C119.415 137.046 97.3969 120.59 77 102C76.1647 101.258 75.3294 100.515 74.4688 99.7501C69.3671 95.2152 64.4746 90.546 59.7148 85.6524C58.2769 83.8844 58.2769 83.8844 57 84.0001ZM398.744 105.218C398.22 105.783 397.696 106.348 397.156 106.93C396.282 107.869 396.282 107.869 395.39 108.827C394.766 109.503 394.143 110.179 393.5 110.875C392.867 111.557 392.234 112.238 391.583 112.941C387.296 117.568 383.055 122.232 378.867 126.949C377.547 128.399 376.171 129.797 374.758 131.156C372.792 132.794 372.792 132.794 373 134.813C374.461 138.009 376.2 140.98 378 144C378.66 144 379.32 144 380 144C381.178 142.569 381.178 142.569 382.285 140.66C382.729 139.935 383.174 139.209 383.631 138.462C384.104 137.67 384.576 136.878 385.062 136.063C385.548 135.257 386.033 134.452 386.533 133.622C389.859 128.047 393.056 122.409 396.125 116.688C396.503 115.99 396.881 115.292 397.27 114.573C399.108 111.077 400.498 107.935 401 104C399.828 103.884 399.828 103.884 398.744 105.218Z" fill="#00579D"/>
</svg>
