<svg version="1.2" xmlns="http://www.w3.org/2000/svg" viewBox="0 0 1092 240" width="1092" height="240"><style>.a{fill:#fff}.b{opacity:.5;fill:#fff}</style><path class="a" d="m737.4 158.4c0 15.4 4.2 29.7 11.6 42h84.4v-40.8h67.2v-1.2c0-45.1-36.5-81.6-81.6-81.6-45.1 0-81.6 36.5-81.6 81.6z"/><path class="a" d="m26.7 0v78.6h-26.7v29.8h26.7v129.5h76.5v-29.7h-46.8v-99.8h27.1v-29.8h-27.1v-78.6z"/><path fill-rule="evenodd" class="a" d="m140.7 172.1q3.8 16.6 16 27.4 12.3 10.8 28.5 10.8 11.2 0 20.6-5.4c6.2-3.6 11.5-8.5 15.7-14.6h34.1q-4.5 10.8-11.6 20.1c-4.8 6.2-10.2 11.4-16.3 15.7-6 4.4-12.6 7.8-19.9 10.3q-10.8 3.6-22.6 3.6-15.9 0-29.9-6.4c-9.3-4.2-17.4-10.1-24.3-17.5q-10.4-11.1-16.4-26.1c-4.1-10-6.1-20.6-6.1-31.9 0-11.2 2-21.8 6.1-31.7q6-14.8 16.4-26c6.9-7.4 15-13.3 24.3-17.5q14-6.4 29.9-6.4 16 0 29.8 6.5c9.2 4.2 17.3 10.1 24.2 17.6 6.9 7.5 12.3 16.2 16.4 26.1q6 14.9 6 31.9c0 4.7-0.3 9.2-0.9 13.5zm88.8-27.6q-4.2-16.6-16.3-27.4c-8-7.2-17.3-10.9-28-10.9q-16.2 0.1-28.3 10.9-12.1 10.8-16.2 27.4z"/><path class="a" d="m279.7 80.8v157.1h114.6v-52h-29.7v22.3h-55.2l-0.6-97.7h55.8v23.9h29.7v-53.6z"/><path class="a" d="m421.6 1.5v236.4h29.7v-127.4h61.6v127.4h31.8v-157.1h-93.4v-79.3z"/><path class="a" d="m574.4 80.8v157.1h29.7v-127.4h57.7v-29.7z"/><path class="a" d="m685.7 78.6l-0.9 101.3v58h29.7v-159.3zm-1-19.1h29.7v-29.7h-29.7z"/><path  d="m844.6 200.4c8.4-0.5 15.8-0.8 22-0.9 28.6-5.4 47.5-21.4 60.6-44l-2.1-0.8 1.9-13.3c-22.9-5.8-48.3-3.2-74.2 1.1l-5.3-6.9c-6.6-2.9-13.5-4.7-20.5-6l-23.2 4.7c-7.5 2-16.9 5.1-19.2 9.2l-1.3 2.3-10.8 1.9-8 14-26.6 5.9c1.3 11.9 5.2 23 11.1 32.8z"/><path class="b" d="m738.5 172.1h0.1c1.7 10.2 5.3 19.8 10.4 28.3h13.3q0.5-0.1 0.9-0.2l39.8-4.7-42.4 3.3 39.7-6.2-38.9 2.7 35.4-6.8-38 3.7 36.1-8.3-36.1 5.4 32.3-7.9-35.8 5.4 33.9-7.9-34.4 4.9 33.2-7.8-34.9 4.5 32.3-7.4-33 4.8 29.9-7.2-30.8 4.2 30.6-7.1-31.5 5.3 25.8-6.4z"/><path fill-rule="evenodd" class="a" d="m923.6 154.1c-21.7-2.5-43.8-3-66.2-1.8l-3.4-7.6q4.4-0.6 8.7-1.1l-2.9 6.4 4.2-6.6q7.7-0.9 15-1.5l-2.5 5.6h-4.1q1.9 0.2 3.9 0.3l-0.8 1.9 1.2-1.9c6 0.4 12 0.5 17.7 0.4l-0.9 1.8 1.5-1.8c6-0.2 11.7-0.7 17.2-1.7l-0.8 4.8 2.1-5.1q4.6-0.9 9-2.3 0.9 0.2 1.8 0.4zm-43.1-12.3q9-0.6 17.3-0.5l-2.6 5.3c-6 0.5-12.1 0.8-18.3 0.9zm20-0.6q6.4 0.2 12.4 1l-0.4 2c-5.3 1.1-10.7 1.8-16.2 2.3zm14.5 1.2q1.6 0.2 3.3 0.5-2 0.5-3.9 0.9zm2.5 21.3c-43.4-6.8-92.2-6.9-146.5 0 53.8-11.6 103-11.8 149.6-5.8zm-148.8-6.5c21.1-5.1 42.4-9.4 63.9-12.8l1.3 3.2c-21.8 2.7-43.5 5.9-65.2 9.6zm66.3-15.1l-5.5-10.4c6.7 1.6 16.1 3.5 18.3 7l3.7 4.9zm-6.6 1.5l-4.5-9.8c-17.4 3.4-34.2 6.8-38 11.4 0.5-5 19.3-9.5 39.6-13.9l5.5 11.4zm-46.1 4.6l-2.4 5.4 0.7-6.4 34.5-7.7zm70 49.3c22.1-4.8 41.9-14.2 59.2-28.3-13.8 16.4-33.3 26.1-59.2 28.3z"/><path class="a" d="m935.5 174.2h122.5q-3.4 10.5-11.1 18.6c-9.7 9.6-20.8 14.5-33.2 14.5h-39.5v30.6h39.5q21.3 0 39-10.4 18.1-10.6 28.7-28.6c7.1-11.9 10.6-24.9 10.6-38.8v-16.5h-122.3c2.1-6.7 5.8-12.7 10.9-18.1 4.4-4.6 9.5-8.1 15.2-10.5q8.7-3.6 17.9-3.6h39.6v-30.6h-39.6q-20.4 0-38.4 10-17.8 10.1-28.4 27.1-10.6 17.1-11.4 37.2z"/><path class="a" d="m749 200.4l0.8 1.2q1 1.6 2.1 3.2l95.9 1.7-93.5 1.6c4.2 5.5 9.2 10.5 14.7 14.8l35.4 1.5-31.5 1.4c13.1 8.9 29 14.2 46.1 14.2 10.8 0 21.1-2.1 30.6-5.9l-23-0.7 26.6-0.9c8.4-3.9 16.1-9.2 22.7-15.6l-60.8-1.5 63.7-1.5c3.5-3.8 6.7-7.9 9.4-12.3l0.8-1.2z"/></svg>