<svg version="1.2" xmlns="http://www.w3.org/2000/svg" viewBox="0 0 1220 268" width="1220" height="268"><style>.a{fill:#ffc926}.b{fill:#05467e}.c{fill:#067ff9}.d{opacity:.5;fill:#067ff9}.e{fill:#fff}</style><path class="a" d="m823.8 176.9c0 17.2 4.8 33.2 13 46.9h94.3v-45.6h75.1v-1.3c0-50.4-40.8-91.2-91.2-91.2-50.4 0-91.2 40.8-91.2 91.2z"/><path class="b" d="m29.9-0.1v87.9h-29.9v33.2h29.9v144.7h85.4v-33.2h-52.2v-111.5h30.2v-33.2h-30.2v-87.9z"/><path fill-rule="evenodd" class="b" d="m157.2 192.2c2.8 12.4 8.8 22.6 17.9 30.6 9.1 8.1 19.8 12.1 31.9 12.1q12.4 0 22.9-6c7-4 12.9-9.5 17.6-16.4h38q-4.9 12.1-12.9 22.5c-5.4 6.9-11.4 12.7-18.2 17.6-6.7 4.9-14.1 8.6-22.2 11.4q-12.1 4.1-25.2 4.1-17.8 0-33.5-7.2c-10.4-4.7-19.5-11.2-27.2-19.5q-11.5-12.5-18.3-29.2c-4.5-11.2-6.8-23-6.8-35.6 0-12.6 2.3-24.4 6.8-35.4q6.8-16.6 18.3-29.1c7.7-8.3 16.8-14.8 27.2-19.6q15.7-7.1 33.5-7.1 17.8 0 33.2 7.2c10.3 4.8 19.3 11.4 27 19.7 7.7 8.4 13.8 18.1 18.3 29.2q6.8 16.7 6.8 35.6c0 5.3-0.4 10.3-1.1 15.1zm99.3-30.9q-4.7-18.5-18.2-30.6c-9-8-19.4-12.1-31.3-12.1q-18.1 0-31.6 12.1-13.6 12.1-18.2 30.6z"/><path class="b" d="m312.5 90.2v175.5h128v-58.1h-33.2v24.9h-61.6l-0.7-109.1h62.3v26.7h33.2v-59.9z"/><path class="b" d="m471.1 1.6v264.1h33.1v-142.3h68.8v142.3h35.6v-175.5h-104.4v-88.6z"/><path class="c" d="m641.8 90.2v175.5h33.2v-142.3h64.3v-33.2z"/><path class="c" d="m766.1 87.8l-1.1 113.1v64.8h33.2v-177.9zm-1-21.3h33.2v-33.3h-33.2z"/><path class="b" d="m943.6 223.8c9.4-0.5 17.6-0.8 24.6-1 31.9-6 53.1-23.9 67.7-49.2l-2.4-0.8 2.2-14.9c-25.6-6.4-54-3.6-83 1.2l-5.8-7.6c-7.4-3.3-15.1-5.3-22.9-6.8l-26 5.3c-8.4 2.2-18.8 5.7-21.4 10.2l-1.5 2.7-12 2-8.9 15.7-29.8 6.6c1.5 13.3 5.8 25.7 12.4 36.6z"/><path class="d" d="m825.1 192.2c2 11.4 6 22.1 11.7 31.6h14.9q0.5-0.1 1-0.2l44.5-5.2-47.4 3.6 44.3-6.9-43.5 3 39.6-7.5-42.4 4.1 40.3-9.4-40.4 6.1 36.1-8.8-39.9 6 37.8-8.7-38.4 5.4 37-8.7-38.9 4.9 36-8.1-36.8 5.3 33.4-8.1-34.4 4.7 34.2-7.9-35.3 5.9 28.9-7.2z"/><path fill-rule="evenodd" class="e" d="m1031.8 172.1c-24.2-2.8-48.9-3.4-73.9-2.1l-3.8-8.4q4.9-0.7 9.7-1.3l-3.2 7.3 4.7-7.4q8.5-1.1 16.7-1.7l-2.8 6.2h-4.6q2.2 0.2 4.5 0.3l-1 2.1 1.3-2.1c6.8 0.5 13.5 0.7 19.9 0.5l-1 2 1.6-2c6.7-0.2 13.1-0.8 19.2-1.9l-0.9 5.3 2.3-5.6q5.3-1 10.1-2.6 1 0.2 2 0.5zm-48.1-13.8c6.7-0.4 13.1-0.7 19.3-0.6l-2.9 6c-6.7 0.6-13.6 0.8-20.4 0.9zm22.3-0.5q7.2 0.1 13.8 1l-0.4 2.3c-5.9 1.2-12 2-18.1 2.5zm16.2 1.3q1.9 0.3 3.7 0.6-2.2 0.6-4.4 1zm2.8 23.8c-48.5-7.6-102.9-7.7-163.6 0.1 60.1-13 115-13.3 167.2-6.5zm-166.3-7.4c23.6-5.6 47.4-10.4 71.4-14.3l1.4 3.6c-24.4 3-48.6 6.7-72.8 10.7zm74.1-16.8l-6.2-11.6c7.5 1.7 18 3.9 20.5 7.8l4.1 5.5zm-7.4 1.7l-5-10.9c-19.5 3.7-38.2 7.5-42.5 12.6 0.6-5.5 21.6-10.5 44.3-15.5l6.1 12.8zm-51.5 5.1l-2.7 6.1 0.8-7.2 38.5-8.6zm78.3 55c24.7-5.4 46.8-15.8 66.1-31.5-15.5 18.3-37.2 29.2-66.1 31.5z"/><path class="c" d="m1045.1 194.5h137q-3.9 11.8-12.5 20.8c-10.8 10.8-23.2 16.2-37 16.2h-44.2v34.2h44.2q23.7 0 43.5-11.6c13.5-7.9 24.2-18.6 32-31.9 8-13.4 11.9-27.8 11.9-43.4v-18.5h-136.6c2.3-7.4 6.4-14.1 12.1-20.1 5-5.2 10.7-9.1 17.1-11.8q9.6-4 20-4h44.1v-34.2h-44.1q-22.8 0-43 11.2-19.8 11.2-31.7 30.3-11.9 19-12.8 41.6z"/><path class="c" d="m836.8 223.8l0.8 1.4q1.2 1.8 2.4 3.5l107.2 1.9-104.5 1.9c4.8 6.1 10.3 11.7 16.4 16.4l39.6 1.7-35.2 1.6c14.7 10 32.4 15.9 51.5 15.9 12.1 0 23.6-2.4 34.1-6.6l-25.6-0.8 29.7-1c9.4-4.3 18-10.3 25.3-17.4l-67.9-1.7 71.2-1.7c4-4.2 7.5-8.8 10.6-13.7l0.8-1.4z"/></svg>