<svg width="662" height="106" viewBox="0 0 662 106" fill="none" xmlns="http://www.w3.org/2000/svg">
<path d="M262.992 21.805C239.461 21.805 220.254 34.2958 220.254 60.5767C220.254 76.0535 233.649 85.9307 250.782 85.9307C256.685 85.9307 263.683 85.1861 269.29 83.4082L271.061 70.6438C266.532 72.133 262.012 73.2499 256.982 73.2499C246.641 73.2499 240.441 67.6579 240.441 58.4265C240.441 43.5272 250.189 34.4782 264.367 34.4782C269.389 34.4782 274.609 35.8762 277.458 37.6541L281.796 24.6998C279.433 23.8564 272.74 21.805 262.992 21.805Z" fill="#3DCCFD"/>
<path d="M301.952 74.8263C297.819 74.8263 296.527 72.0379 296.527 68.5961C296.527 56.3864 306.283 47.5273 315.24 47.5273C316.031 47.5273 317.018 47.6261 317.892 47.8996L315.734 56.1889C313.075 66.5447 308.053 74.8263 301.952 74.8263ZM318.394 36.8068C299.688 36.8068 277.236 47.8085 277.236 70.7463C277.236 79.5902 282.357 85.9268 293.389 85.9268C302.248 85.9268 307.567 81.2617 311.692 74.9251C311.008 78.5569 310.119 82.5685 309.823 84.9086H328.537C328.734 82.0063 329.03 77.911 330.603 71.111L337.791 39.3293C334.144 37.9313 325.087 36.8068 318.394 36.8068Z" fill="#3DCCFD"/>
<path d="M366.536 74.9222C361.802 74.9222 360.427 71.3816 360.427 67.4611C360.427 60.7598 363.869 47.7219 372.834 47.7219C377.659 47.7219 378.829 51.4449 378.829 55.2666C378.829 61.7855 375.197 74.9222 366.536 74.9222ZM405.52 17.7105H387.407L381.397 44.6448C379.528 39.8886 374.703 36.9178 367.911 36.9178C352.449 36.9178 341.129 51.5361 341.129 70.3635C341.129 76.1378 344.084 85.9238 357.57 85.9238C365.062 85.9238 370.76 82.9455 375.387 76.5101L373.913 84.9057H390.849C391.343 81.821 391.837 78.6603 393.113 73.0683L405.52 17.7105Z" fill="#3DCCFD"/>
<path d="M428.559 74.8263C424.418 74.8263 423.134 72.0379 423.134 68.5961C423.134 56.3864 432.882 47.5273 441.84 47.5273C442.623 47.5273 443.618 47.6261 444.499 47.8996L442.327 56.1889C439.675 66.5447 434.653 74.8263 428.559 74.8263ZM445.001 36.8068C426.28 36.8068 403.844 47.8085 403.844 70.7463C403.844 79.5902 408.964 85.9268 419.989 85.9268C428.848 85.9268 434.166 81.2617 438.292 74.9251C437.608 78.5569 436.727 82.5685 436.431 84.9086H455.129C455.334 82.0063 455.63 77.911 457.203 71.111L464.391 39.3293C460.744 37.9313 451.695 36.8068 445.001 36.8068Z" fill="#3DCCFD"/>
<path d="M497.46 36.8078C486.443 36.8078 470.184 40.0748 470.184 53.2115C470.184 66.0822 491.951 65.1401 491.951 71.1955C491.951 75.4807 485.06 76.2329 481.611 76.2329C476.589 76.2329 471.87 74.8273 467.524 72.5935L464.181 83.504C469.986 85.1831 475.996 85.9277 482.097 85.9277C494.01 85.9277 509.67 82.7518 509.67 68.6883C509.67 56.2886 487.416 56.9496 487.416 50.7878C487.416 46.8901 493.425 46.3127 496.579 46.3127C501.206 46.3127 505.734 47.4295 509.966 49.1087L513.514 39.0567C508.393 37.7499 502.778 36.8078 497.46 36.8078Z" fill="#3DCCFD"/>
<path d="M549.542 23.5814L530.144 28.9835L528.177 37.8425H519.606L517.145 48.6391H525.722L521.278 68.4922C520.791 70.7411 520.495 72.8837 520.495 75.2011C520.495 83.118 525.814 85.9292 533.29 85.9292C539.102 85.9292 544.322 84.9035 547.566 83.969L549.443 72.8837C547.673 73.5219 545.796 73.9018 543.927 73.9018C541.275 73.9018 539.497 72.9673 539.497 70.1789C539.497 68.8797 539.596 67.9375 539.885 66.7295L543.927 48.6391H554.769L557.117 37.8425H546.381L549.542 23.5814Z" fill="#3DCCFD"/>
<path d="M614.909 37.7489H596.697L590.596 65.3214C589.608 69.8877 587.048 75.0163 581.334 75.0163C577.793 75.0163 576.319 73.246 576.319 70.3588C576.319 68.9684 576.616 67.464 576.912 66.0812L583.211 37.7489H564.983L557.895 69.7054C557.507 71.3845 557.408 73.0636 557.408 74.7352C557.408 82.7585 563.213 85.9268 571.297 85.9268C579.662 85.9268 585.072 81.7404 589.213 76.6118L587.838 84.9086H604.963C605.26 81.5428 606.042 78.0098 606.741 74.7352L614.909 37.7489Z" fill="#3DCCFD"/>
<path d="M658.126 36.8076C650.338 36.8076 644.435 41.655 641.092 47.9992L643.06 37.9321H625.828C625.539 41.2827 624.749 44.641 623.966 47.9992L615.692 84.9019H633.904L638.144 65.8921C639.815 58.5146 645.225 51.8209 653.696 51.8209C655.178 51.8209 656.553 51.9121 657.83 52.4743L661.864 37.2787C660.686 36.914 659.402 36.8076 658.126 36.8076Z" fill="#3DCCFD"/>
<path d="M282.132 18.9739C281.494 17.3708 258.776 2.25109 230.908 0.435214C202.575 -2.58112 170.102 10.2744 137.492 32.7868C104.882 55.3143 73.2222 70.2137 46.1891 70.5252C19.6347 72.0371 -1.2973 61.5218 0.062711 64.9788C0.700929 66.5971 23.4184 81.7092 51.2873 83.5327C79.6196 86.549 112.093 73.7011 144.71 51.1735C177.312 28.6459 208.973 13.7542 236.013 13.4351C262.568 11.9383 283.485 22.4385 282.132 18.9739Z" fill="#3DCCFD"/>
<path d="M267.815 90.5561C267.275 92.0833 246.488 105.41 220.389 105.539C193.88 106.815 162.934 92.4632 131.495 68.7504C100.07 45.0299 69.7849 28.7478 44.393 26.8635C19.4037 23.8548 0.135657 32.8278 1.29053 29.5532C1.81478 28.0108 22.6024 14.6918 48.7086 14.5626C75.2174 13.2938 106.171 27.6461 137.611 51.3589C169.035 75.0718 199.305 91.3539 224.705 93.2458C249.702 96.2621 268.97 87.2815 267.815 90.5561Z" fill="#3DCCFD"/>
</svg>
