<svg width="423" height="102" viewBox="0 0 423 102" fill="none" xmlns="http://www.w3.org/2000/svg">
<path d="M308.7 67.1532C302.97 72.7622 286.887 74.3552 288.533 60.9482C289.899 49.8122 302.023 47.4462 315.163 49.0542C314.186 55.1452 313.066 62.8793 308.7 67.1543M290.6 23.7172C290.054 26.7892 289.214 29.5692 288.533 32.5072C295.093 30.8632 315.523 25.8202 317.491 34.5762C318.145 37.4862 317.017 40.5762 316.198 42.8502C297.724 41.1002 282.667 44.1702 278.708 57.3292C276.055 66.1432 279.005 74.8172 284.655 77.2392C295.536 81.8992 308.772 76.5593 313.354 69.2233C312.878 71.7633 312.427 74.3282 312.578 77.4972H322.144C322.246 68.3352 323.579 60.9192 324.988 52.6752C326.19 45.6552 328.45 38.7042 328.09 32.5082C327.27 18.3182 303.76 23.3362 290.6 23.7172ZM386.524 71.5502C379.039 71.7102 375.318 67.0792 375.147 59.3992C374.849 45.9492 380.749 31.0052 392.729 29.6652C398.307 29.0412 402.345 30.3382 406.432 31.7342C402.681 46.8422 404.035 71.1742 386.524 71.5502ZM411.344 0.449242C410.392 8.80324 409.118 16.8382 407.467 24.4932C380.196 15.8622 363.471 35.9262 363.771 60.6912C363.83 65.4812 364.654 70.2312 367.65 73.6182C372.812 79.4582 387.594 80.8542 395.056 75.9462C396.502 74.9962 397.977 73.2682 398.936 72.0682C399.654 71.1652 400.796 68.8022 401.002 69.4812C400.611 72.1062 400.024 74.5372 399.969 77.4982H410.053C411.995 49.6212 418.005 25.8102 422.463 0.448242L411.344 0.449242ZM126.68 67.4122C120.731 73.7122 106.108 73.6153 104.962 63.0163C104.462 58.4043 106.181 53.5682 107.03 48.7962C107.89 43.9662 108.508 39.3322 109.356 35.0922C115.215 27.9382 132.431 27.0752 134.178 38.9712C135.694 49.2992 131.606 62.1952 126.68 67.4122ZM135.471 23.7162C126.061 20.1822 114.592 24.4012 109.621 28.4152C109.638 28.5912 109.503 28.6152 109.356 28.6292C109.441 28.5572 109.533 28.4862 109.621 28.4152C109.621 28.4004 109.619 28.3856 109.615 28.3712C109.699 26.6442 110.307 25.4422 110.391 23.7162H100.825C96.838 50.2392 92.111 76.0202 87.121 101.54H98.239C99.848 91.6002 100.911 81.1163 103.152 71.8073C105.691 81.5973 122.269 79.7272 129.265 75.9442C143.7 68.1392 154.834 30.9902 135.471 23.7162ZM188.215 42.3322H162.102C162.928 36.3292 168.329 29.7302 176.839 29.4052C184.848 29.0982 190.582 32.3452 188.215 42.3322ZM177.615 22.6822C169.581 23.3012 162.791 25.6122 157.965 30.6972C152.045 36.9332 147.252 50.7202 148.656 63.2752C150.66 81.1872 172.962 80.5452 190.801 76.2022C191.104 73.0592 191.865 70.3722 192.352 67.4122C185.003 70.1622 172.245 74.0002 164.687 69.2222C158.981 65.6142 158.947 56.4772 160.809 48.5372C172.798 48.1562 185.259 48.2292 197.264 48.5372C198.026 42.9092 200.206 36.7732 198.298 31.2152C195.783 23.8762 186.778 21.9772 177.615 22.6822ZM79.882 23.7162C79.581 23.7602 79.601 24.1262 79.622 24.4912C77.173 42.8122 73.858 60.2682 70.315 77.4962H81.433C84.104 59.0512 87.164 40.9972 90.999 23.7162H79.882ZM369.978 23.9742C360.152 19.0622 351.972 27.3052 348.778 32.2482C349.687 29.7122 349.738 26.3172 350.586 23.7162H340.761C338.113 42.1832 334.918 60.1042 331.195 77.4962H342.571C342.643 70.3682 344.043 65.0962 345.156 58.1042C347.534 43.1782 351.024 26.8102 368.426 31.7322C369.004 29.2072 369.244 26.3442 369.978 23.9742ZM245.096 64.8262C244.072 62.1792 243.806 57.8062 244.062 54.4842C244.637 47.0122 247.359 37.9172 251.56 33.8002C257.358 28.1172 268.804 29.0572 277.932 32.2482C278.216 29.1712 278.834 26.4272 279.226 23.4582C264.253 21.0132 250.045 22.5342 242.511 30.4382C235.137 38.1772 230.302 55.9622 233.72 67.1532C237.72 80.2482 255.654 80.9602 270.177 75.9442C270.819 73.3122 271.159 70.3782 271.728 67.6702C263.793 71.7932 248.623 73.9362 245.096 64.8262ZM238.892 23.7162C229.033 19.7352 221.284 26.4632 217.692 32.7662C218.505 29.9622 218.842 26.6782 219.5 23.7162H209.675C207.273 42.3442 203.733 59.8332 200.367 77.4962H211.486C213.044 67.0112 213.716 52.8782 217.173 42.8492C219.936 34.8352 227.166 28.0072 237.599 31.7322C237.745 28.7752 238.592 26.5182 238.892 23.7162ZM59.714 1.99825C58.126 12.3032 56.337 22.4082 54.543 32.5072C43.025 32.6282 31.265 33.0762 20.156 32.2472C22.254 22.3682 23.759 11.8932 25.843 1.99725H13.433C8.98999 27.2042 4.94999 52.8102 -0.0100098 77.4972H12.658C14.646 64.8322 16.504 52.0392 19.121 40.0072C29.924 39.7402 42.871 39.2772 53.251 40.2652C51.111 52.7762 48.524 64.8402 46.529 77.4972H59.198C63.268 51.9202 67.558 26.5622 72.643 1.99924L59.714 1.99825ZM91.257 13.3742C93.474 11.8482 96.328 4.89325 93.067 1.99825C92.034 1.08125 90.306 0.815244 87.897 1.22324C85.66 1.60024 84.374 2.35925 83.501 3.54925C82.095 5.46225 80.808 11.2312 82.983 13.3742C85.101 15.4612 89.847 14.3442 91.257 13.3742Z" fill="#3DCCFD"/>
</svg>
