<svg version="1.2" xmlns="http://www.w3.org/2000/svg" viewBox="0 0 176 20" width="176" height="20"><defs><clipPath clipPathUnits="userSpaceOnUse" id="cp1"><path d="m-182-4215h540v4375h-540z"/></clipPath></defs><style>.a{fill:white}</style><g clip-path="url(#cp1)"><path fill-rule="evenodd" class="a" d="m12.4 8.4l-8.4-8.3h-3.5v3.4l16.8 16.5v-6.6l6.7 6.6v-6.8l-11.6-11.4zm32.1-2.2c0-3.4-2.9-6.2-6.4-6.2h-10.1l5.1 5h5c0.7 0 1.3 0.6 1.3 1.2 0 0.7-0.6 1.3-1.3 1.3h-7.5l5.1 5h2.4c0.7 0 1.3 0.6 1.3 1.2 0 0.7-0.6 1.3-1.3 1.3h-11.4v5h11.4c3.5 0 6.4-2.8 6.4-6.3 0-1.4-0.5-2.7-1.3-3.7 0.8-1.1 1.3-2.4 1.3-3.8z"/><path fill-rule="evenodd" class="a" d="m26.7 0v5h5.1zm2.5 7.5v5h5.1zm-10.1-7.4v7l4.9 4.8v-11.8z"/><path fill-rule="evenodd" class="a" d="m171.8 12.6h-5.6l-1 2h-2.7l4.8-9.5h3.3l4.9 9.5h-2.7zm-0.9-1.8l-1.9-3.9-1.9 3.9zm-10.8 3.9h-2.4v-9.4h2.4zm-5.9-9.5v9.6h-2.4v-3.7h-7.9v3.7h-2.4v-9.6h2.4v3.8h7.9v-3.8zm-15.9 0v9.5h-3.3l-6.4-7.1v7.1h-2.4v-9.5h3.2l6.5 7.1v-7.1zm-18.1 7.4h-5.7l-1 2h-2.6l4.8-9.5h3.3l4.9 9.5h-2.7zm-0.9-1.7l-1.9-3.9-1.9 3.9zm-8.7-2.2c0 2.3-1.4 3.6-3.6 3.6h-5.2v2.6h-2.3v-9.8h7.5c2.2 0 3.6 1.4 3.6 3.6zm-2.3 0c0-1.6-1.2-1.6-2-1.6h-4.5v3.2h4.5c0.8 0 2 0 2-1.6zm-12.1 6h-2.4v-6.5l-4 6.5h-1.7l-4-6.5v6.5h-2.4v-9.4h3.2l4.1 6.6 4-6.6h3.2zm-28.6-4.7c0-3.2 1.7-4.9 5.9-4.9 4.1 0 5.9 1.7 5.9 4.9 0 3.3-1.8 5.1-5.9 5.1-4.2 0-5.9-1.8-5.9-5.1zm9.4 0c0-1.9-1-2.9-3.5-2.9-2.6 0-3.5 0.9-3.5 2.9 0 2.1 1 3 3.5 3 2.5 0 3.5-1 3.5-3zm-17.6-4.9c3.5 0 5.4 1.2 5.9 3.6h-2.6c-0.4-1.1-1.6-1.6-3.3-1.6-2.5 0-3.6 0.9-3.6 2.9 0 2.1 1.1 3 3.6 3 1.9 0 3-0.5 3.4-1.9h2.5c-0.3 2.6-2.3 4-5.9 4-4.2 0-5.9-1.8-5.9-5.1 0-3.2 1.7-4.9 5.9-4.9z"/></g></svg>